# xmcd CD database file generated by Grip 3.3.1
# 
# Track frame offsets:
#       150
#       21614
#       39571
#       61021
#       91933
#       126072
#       137987
#       164434
#       182791
#       209548
# 
# Disc length: 2997 seconds
# 
# Revision: 4
# Processed by: cddbd v1.5.2PL0 Copyright (c) Steve Scherf et al.
# Submitted via: Grip 3.3.1
# 
DISCID=8f0bb30a
DTITLE=Junior Kimbrough - All Night Long
DYEAR=1995
DGENRE=Blues
TTITLE0=Work Me Baby
TTITLE1=Do The Romp
TTITLE2=Stay All Night
TTITLE3=Meet Me In The City
TTITLE4=You Better Run
TTITLE5=Done Got Old
TTITLE6=All Night Long
TTITLE7=I Feel Alright
TTITLE8=Nobody But You
TTITLE9=Slow Lightnin'
EXTD=
EXTT0=
EXTT1=
EXTT2=
EXTT3=
EXTT4=
EXTT5=
EXTT6=
EXTT7=
EXTT8=
EXTT9=
PLAYORDER=
